<?xml version="1.0" encoding="utf-8"?>
<svg viewBox="0 0 500 500" xmlns="http://www.w3.org/2000/svg">
  <defs>
    <path id="path-0" style="fill: none;" d="M 357.854 324.668 L 357.854 298.673 C 357.854 256.777 351.882 214.4 349.558 172.566"/>
    <path id="path-2" style="fill: none;" d="M 357.854 324.668 L 357.854 298.673 C 357.854 256.777 351.882 214.4 349.558 172.566"/>
  </defs>
  <ellipse style="stroke-miterlimit: 6; stroke-dashoffset: 50px; stroke-width: 0px; paint-order: fill; stroke: rgb(255, 0, 0); fill: rgb(255, 207, 94);" cx="249.446" cy="249.17" rx="245.575" ry="245.852"/>
  <path d="M 337.442 323.492 L 337.442 319.801 L 347.833 316.273 L 337.442 312.719 L 337.442 309.014 L 357.854 309.014 L 357.854 311.57 L 339.821 311.57 L 350.581 315.207 L 350.581 317.299 L 339.821 320.949 L 357.854 320.949 L 357.854 323.492 Z" transform="matrix(10.118162, 0, 0, -15.839973, -3147.914062, 5200.791016)" style="fill: rgb(51, 51, 51); white-space: pre;"/>
  <path transform="matrix(10.118162, 0, 0, -15.839973, -3147.914062, 5200.791016)" style="fill: rgb(51, 51, 51); white-space: pre;"/>
  <path transform="matrix(10.118162, 0, 0, -15.839973, -3147.914062, 5200.791016)" style="fill: rgb(51, 51, 51); white-space: pre;"/>
  <path d="M 177.459 116.041 Q 177.459 116.805 177.145 117.433 Q 176.83 118.061 176.304 118.565 Q 175.778 119.068 175.101 119.439 Q 174.424 119.81 173.693 120.063 Q 172.963 120.317 172.233 120.449 Q 171.502 120.582 170.882 120.604 L 170.776 120.226 Q 171.275 120.12 171.835 119.95 Q 172.395 119.779 172.944 119.533 Q 173.493 119.287 173.989 118.962 Q 174.484 118.636 174.863 118.216 Q 175.241 117.796 175.464 117.286 Q 175.688 116.775 175.688 116.154 Q 175.688 115.685 175.472 115.303 Q 175.256 114.92 174.912 114.652 Q 174.568 114.383 174.132 114.235 Q 173.697 114.088 173.258 114.088 Q 172.736 114.088 172.229 114.213 Q 171.722 114.338 171.23 114.527 L 171.101 114.217 Q 171.442 114.065 171.824 113.853 Q 172.206 113.641 172.573 113.38 Q 172.94 113.119 173.273 112.805 Q 173.606 112.491 173.86 112.131 Q 174.113 111.772 174.265 111.375 Q 174.416 110.977 174.416 110.538 Q 174.416 110.258 174.329 110.027 Q 174.242 109.797 174.076 109.626 Q 173.909 109.456 173.678 109.361 Q 173.447 109.267 173.167 109.267 Q 172.713 109.267 172.369 109.464 Q 172.025 109.66 171.771 109.986 Q 171.517 110.311 171.347 110.731 Q 171.177 111.151 171.075 111.59 Q 170.973 112.029 170.927 112.457 Q 170.882 112.885 170.882 113.225 L 170.882 119.068 L 169.323 119.62 L 169.323 114.058 Q 169.323 113.323 169.489 112.627 Q 169.656 111.931 169.97 111.307 Q 170.284 110.682 170.734 110.16 Q 171.184 109.638 171.748 109.263 Q 172.312 108.888 172.982 108.677 Q 173.652 108.465 174.401 108.465 Q 174.742 108.465 175.059 108.555 Q 175.377 108.646 175.616 108.835 Q 175.854 109.025 175.998 109.305 Q 176.142 109.585 176.142 109.956 Q 176.142 110.357 175.979 110.746 Q 175.816 111.136 175.544 111.507 Q 175.271 111.878 174.923 112.215 Q 174.575 112.552 174.2 112.839 Q 173.826 113.127 173.455 113.354 Q 173.084 113.581 172.774 113.732 Q 173.546 113.551 174.356 113.551 Q 174.946 113.551 175.502 113.691 Q 176.059 113.831 176.494 114.13 Q 176.929 114.428 177.194 114.901 Q 177.459 115.375 177.459 116.041 Z" transform="matrix(28.023195, 0, 0, 32.61256, -4729.021484, -3471.083984)" style="fill: rgb(51, 51, 51); white-space: pre;"/>
  <path transform="matrix(28.023195, 0, 0, 32.61256, -4729.021484, -3471.083984)" style="fill: rgb(51, 51, 51); white-space: pre;"/>
  <path d="M 337.442 322.768 L 337.442 319.268 L 354.245 312.377 L 337.442 312.377 L 337.442 309.711 L 357.854 309.711 L 357.854 313.211 L 341.051 320.102 L 357.854 320.102 L 357.854 322.768 Z" transform="matrix(10.118162, 0, 0, -14.232291, -3148.058594, 4872.475098)" style="fill: rgb(51, 51, 51); white-space: pre;"/>
  <path transform="matrix(10.118162, 0, 0, -14.232291, -3148.058594, 4872.475098)" style="fill: rgb(51, 51, 51); white-space: pre;"/>
  <path transform="matrix(10.118162, 0, 0, -14.232291, -3148.058594, 4872.475098)" style="fill: rgb(51, 51, 51); white-space: pre;"/>
</svg>